<?xml version="1.0" encoding="utf-8"?>
<!-- Generator: Adobe Illustrator 21.0.2, SVG Export Plug-In . SVG Version: 6.00 Build 0)  -->


<svg width="50px" height="50px" viewBox="0 0 50 50" version="1.1" xmlns="http://www.w3.org/2000/svg" xmlns:xlink="http://www.w3.org/1999/xlink">
    <!-- Generator: Sketch 43.2 (39069) - http://www.bohemiancoding.com/sketch -->
    <desc>Created with Sketch.</desc>
    <defs></defs>
    <g id="Paired" stroke="none" stroke-width="1" fill="none" fill-rule="evenodd">
        <g id="Home-Page-(Default-v3)-Copy" transform="translate(-278.000000, -595.000000)">
            <g id="Bottom-Navigation" transform="translate(36.000000, 566.000000)">
                <g id="AdventureButton" transform="translate(242.000000, 29.000000)">
                    <path d="M24.8368018,24.6587229 C21.7253363,24.6587229 19.2061336,22.1241928 19.2061336,18.9984819 C19.2061336,15.8727711 21.7253363,13.338241 24.8368018,13.338241 C27.9440964,13.338241 30.4653844,15.8727711 30.4653844,18.9984819 C30.4653844,22.1241928 27.9440964,24.6587229 24.8368018,24.6587229 Z M24.8368018,8.40963855 C19.0768368,8.40963855 14.4096386,13.0824819 14.4096386,18.8706024 C14.4096386,28.8808434 24.8368018,41.9308434 24.8368018,41.9308434 C24.8368018,41.9308434 35.263965,28.878747 35.263965,18.8706024 C35.263965,13.0845783 30.5967667,8.40963855 24.8368018,8.40963855 Z" id="Stroke-3"></path>
                    <circle id="Right" fill="#FFFFFF" cx="25" cy="25" r="25"></circle>
                    <path d="M24.6506024,24.4773711 C21.5391369,24.4773711 19.0199343,21.942841 19.0199343,18.8171301 C19.0199343,15.6914193 21.5391369,13.1568892 24.6506024,13.1568892 C27.757897,13.1568892 30.2791851,15.6914193 30.2791851,18.8171301 C30.2791851,21.942841 27.757897,24.4773711 24.6506024,24.4773711 M24.6506024,8.22828675 C18.8906375,8.22828675 14.2234392,12.9011301 14.2234392,18.6892506 C14.2234392,28.6994916 24.6506024,41.7494916 24.6506024,41.7494916 C24.6506024,41.7494916 35.0777656,28.6973952 35.0777656,18.6892506 C35.0777656,12.9032265 30.4105674,8.22828675 24.6506024,8.22828675" id="Fill-1" fill="#3996E0"></path>
                </g>
            </g>
        </g>
    </g>
</svg>
