<svg xmlns="http://www.w3.org/2000/svg" xmlns:xlink="http://www.w3.org/1999/xlink" viewBox="0 0 92 27"><defs><style>.cls-1{fill:url(#linear-gradient);}.cls-2{mask:url(#mask);}.cls-3{fill:#fff;opacity:0.8;}</style><linearGradient id="linear-gradient" x1="46" x2="46" y2="27" gradientUnits="userSpaceOnUse"><stop offset="0" stop-color="#fff"/><stop offset="0.09" stop-color="#f7f7f7"/><stop offset="0.22" stop-color="#e2e2e2"/><stop offset="0.38" stop-color="#bebebe"/><stop offset="0.57" stop-color="#8d8d8d"/><stop offset="0.77" stop-color="#4f4f4f"/><stop offset="0.99" stop-color="#040404"/><stop offset="1"/></linearGradient><mask id="mask" x="0" y="0" width="92" height="27" maskUnits="userSpaceOnUse"><path class="cls-1" d="M87,17H58.57c-3.85-4,0-7,0-7H69A5,5,0,0,0,69,0H5A5,5,0,0,0,5,10H37.85s3.85,3,0,7H26a5,5,0,0,0,0,10H87a5,5,0,0,0,0-10Z"/></mask></defs><title>Asset 8</title><g id="Layer_2" data-name="Layer 2"><g id="Layer_5" data-name="Layer 5"><g class="cls-2"><path class="cls-3" d="M87,17H58.57c-3.85-4,0-7,0-7H69A5,5,0,0,0,69,0H5A5,5,0,0,0,5,10H37.85s3.85,3,0,7H26a5,5,0,0,0,0,10H87a5,5,0,0,0,0-10Z"/></g></g></g></svg>