<?xml version="1.0" encoding="utf-8"?>


<svg width="29px" height="22px" viewBox="0 0 29 22" version="1.1" xmlns="http://www.w3.org/2000/svg" xmlns:xlink="http://www.w3.org/1999/xlink">
    <!-- Generator: Sketch 43.2 (39069) - http://www.bohemiancoding.com/sketch -->
    <desc>Created with Sketch.</desc>
    <defs></defs>
    <g id="Paired" stroke="none" stroke-width="1" fill="none" fill-rule="evenodd">
        <g id="Home-Page-(Default-v3)-Copy" transform="translate(-325.000000, -34.000000)" stroke="#FFFFFF">
            <g id="hardware" transform="translate(337.905003, 45.719923) rotate(63.000000) translate(-337.905003, -45.719923) translate(327.905003, 30.719923)">
                <path d="M13.6718205,29.5444749 C13.6718205,29.5444749 0.771649573,29.5451556 0.054982906,15.1344305 C-0.661726496,0.723662934 10.2843419,-0.489149077 14.1018205,0.152947889 C16.7401966,0.596681389 20.551906,3.64862008 19.906906,8.92777679 C19.261906,14.206976 13.588359,15.889641 12.5389573,16.9892544 C8.45387179,21.2696598 12.0951111,26.6908572 13.4568205,27.6182691 C14.8185299,28.5456811 13.6718205,29.5444749 13.6718205,29.5444749 Z M13.7502179,28.5031625 C13.7502179,28.8361221 13.4363291,29.1911174 13.1018419,29.1911174 C12.7673547,29.1911174 12.5389359,28.8361221 12.5389359,28.5031625 C12.5389359,28.1702028 12.8100897,27.9002873 13.1445769,27.9002873 C13.4790641,27.9002873 13.7502179,28.1702028 13.7502179,28.5031625" id="Stroke-1" stroke-opacity="0" fill="#FF495C"></path>
                <path d="M15.1801496,2.99032818 C15.4959615,4.28877297 13.6113462,5.85726093 10.9707479,6.49361501 C8.33014957,7.13001164 5.93352564,6.59324342 5.61775641,5.29479862 C5.30194444,3.99635383 7.18655983,2.42786587 9.82715812,1.79151179 C12.4677137,1.15515771 14.8643376,1.69188339 15.1801496,2.99032818 Z" id="Stroke-3"></path>
                <path d="M14.4330171,3.60721602 C14.693359,4.67777466 13.1262222,5.974135 10.9327179,6.5027781 C8.73917094,7.03142121 6.74989744,6.59211185 6.48951282,5.52155321 C6.22912821,4.45099456 7.79630769,3.15459168 9.98981197,2.62599112 C12.183359,2.09734801 14.1726325,2.53665737 14.4330171,3.60721602 Z" id="Stroke-5"></path>
            </g>
        </g>
    </g>
</svg>