<svg xmlns="http://www.w3.org/2000/svg" xmlns:xlink="http://www.w3.org/1999/xlink" viewBox="0 0 56.38 14"><defs><style>.cls-1{fill:url(#White_Black);}.cls-2{mask:url(#mask);}.cls-3{fill:#fff;opacity:0.8;}</style><linearGradient id="White_Black" x1="28.19" x2="28.19" y2="14" gradientUnits="userSpaceOnUse"><stop offset="0" stop-color="#fff"/><stop offset="1"/></linearGradient><mask id="mask" x="0" y="0" width="56.38" height="14" maskUnits="userSpaceOnUse"><path class="cls-1" d="M53.13,7.51H33.07s-2.54-1.33,0-3.09H42A2.21,2.21,0,1,0,42,0H10.55a2.21,2.21,0,0,0,0,4.42h8.88c2.54,1.77,0,3.09,0,3.09H3.25a3.25,3.25,0,1,0,0,6.49H53.13a3.25,3.25,0,0,0,0-6.49Z"/></mask></defs><title>Asset 9</title><g id="Layer_2" data-name="Layer 2"><g id="Layer_5" data-name="Layer 5"><g class="cls-2"><path class="cls-3" d="M53.13,7.51H33.07s-2.54-1.33,0-3.09H42A2.21,2.21,0,1,0,42,0H10.55a2.21,2.21,0,0,0,0,4.42h8.88c2.54,1.77,0,3.09,0,3.09H3.25a3.25,3.25,0,1,0,0,6.49H53.13a3.25,3.25,0,0,0,0-6.49Z"/></g></g></g></svg>