<svg xmlns="http://www.w3.org/2000/svg" xmlns:xlink="http://www.w3.org/1999/xlink" viewBox="0 0 84 30"><defs><style>.cls-1{fill:url(#White_Black);}.cls-2{mask:url(#mask);}.cls-3{fill:#fff;opacity:0.8;}</style><linearGradient id="White_Black" x1="42" x2="42" y2="30" gradientUnits="userSpaceOnUse"><stop offset="0" stop-color="#fff"/><stop offset="1"/></linearGradient><mask id="mask" x="0" y="0" width="84" height="30" maskUnits="userSpaceOnUse"><path class="cls-1" d="M80.67,22.22H53.47c-3.52-3.11,0-5.44,0-5.44H64.23a3.34,3.34,0,0,0,3.33-3.33V12.33A3.34,3.34,0,0,0,64.23,9H39.63s-3-1.59,0-3.71H50.35a2.65,2.65,0,0,0,0-5.29H12.65a2.65,2.65,0,0,0,0,5.29H23.29c3,2.12,0,3.71,0,3.71h-20A3.34,3.34,0,0,0,0,12.33v1.11a3.34,3.34,0,0,0,3.33,3.33H34.56s3.52,2.33,0,5.44H22.51a3.34,3.34,0,0,0-3.33,3.33v1.11A3.34,3.34,0,0,0,22.51,30H80.67A3.34,3.34,0,0,0,84,26.67V25.56A3.34,3.34,0,0,0,80.67,22.22Z"/></mask></defs><title>Asset 11</title><g id="Layer_2" data-name="Layer 2"><g id="Layer_5" data-name="Layer 5"><g class="cls-2"><path class="cls-3" d="M80.67,22.22H53.47c-3.52-3.11,0-5.44,0-5.44H64.23a3.34,3.34,0,0,0,3.33-3.33V12.33A3.34,3.34,0,0,0,64.23,9H39.63s-3-1.59,0-3.71H50.35a2.65,2.65,0,0,0,0-5.29H12.65a2.65,2.65,0,0,0,0,5.29H23.29c3,2.12,0,3.71,0,3.71h-20A3.34,3.34,0,0,0,0,12.33v1.11a3.34,3.34,0,0,0,3.33,3.33H34.56s3.52,2.33,0,5.44H22.51a3.34,3.34,0,0,0-3.33,3.33v1.11A3.34,3.34,0,0,0,22.51,30H80.67A3.34,3.34,0,0,0,84,26.67V25.56A3.34,3.34,0,0,0,80.67,22.22Z"/></g></g></g></svg>